PathFileType	4	(X/Y/Z)	/Users/itak/Documents/Research/Walk-IL/dataset/trc/00570_00009.trc
DataRate	CameraRate	NumFrames	NumMarkers	Units	OrigDataRate	OrigDataStartFrame	OrigNumFrames
100.000000	100.000000	4	53	mm	100.000000	197	526
Frame#	Time	RPSI			LPSI			L3			STRN			T10			C7			CLAV			RBAK			LBAK			LSHO			LUPA			LAEL			LAOL			LWTS			LWPS			LFRA			LIFD			LHPS			LHTS			RSHO			RUPA			RAEL			RAOL			RWTS			RWPS			RFRA			RIFD			RHTS			RHPS			RBHD			LFHD			RFHD			LBHD			LHIP			RHIP			RASI			LASI			LKNE			LTHI			LANK			LTIP			LTOE			LMT1			LMT5			LHEE			RKNE			RTHI			RANK			RTIP			RTOE			RMT1			RMT5			RHEE			
		X1	Y1	Z1	X2	Y2	Z2	X3	Y3	Z3	X4	Y4	Z4	X5	Y5	Z5	X6	Y6	Z6	X7	Y7	Z7	X8	Y8	Z8	X9	Y9	Z9	X10	Y10	Z10	X11	Y11	Z11	X12	Y12	Z12	X13	Y13	Z13	X14	Y14	Z14	X15	Y15	Z15	X16	Y16	Z16	X17	Y17	Z17	X18	Y18	Z18	X19	Y19	Z19	X20	Y20	Z20	X21	Y21	Z21	X22	Y22	Z22	X23	Y23	Z23	X24	Y24	Z24	X25	Y25	Z25	X26	Y26	Z26	X27	Y27	Z27	X28	Y28	Z28	X29	Y29	Z29	X30	Y30	Z30	X31	Y31	Z31	X32	Y32	Z32	X33	Y33	Z33	X34	Y34	Z34	X35	Y35	Z35	X36	Y36	Z36	X37	Y37	Z37	X38	Y38	Z38	X39	Y39	Z39	X40	Y40	Z40	X41	Y41	Z41	X42	Y42	Z42	X43	Y43	Z43	X44	Y44	Z44	X45	Y45	Z45	X46	Y46	Z46	X47	Y47	Z47	X48	Y48	Z48	X49	Y49	Z49	X50	Y50	Z50	X51	Y51	Z51	X52	Y52	Z52	X53	Y53	Z53	

198	1.97	-656.1417846679688	999.2095947265625	-29.63245582580566	-619.482177734375	999.7274780273438	-158.4312286376953	-630.5744018554688	1103.85693359375	-91.02925109863281	-386.7459716796875	1278.176391601562	-34.13700103759766	-627.0609741210938	1228.941284179688	-87.49664306640625	-566.4642333984375	1499.11572265625	-53.0283088684082	-398.3637390136719	1389.867797851562	-34.79959869384766	-658.8561401367188	1376.469482421875	14.46708202362061	-585.4916381835938	1450.982666015625	-150.1652221679688	-473.4002990722656	1471.53125	-214.4140625	-481.3007507324219	1347.3017578125	-297.9695434570312	-476.690185546875	1130.684692382812	-330.8631896972656	-567.154541015625	1120.539306640625	-285.7336730957031	-366.9772033691406	901.4838256835938	-276.233642578125	-406.3317260742188	871.949951171875	-348.0841979980469	-447.9311828613281	1047.628784179688	-336.4173278808594	-352.5533752441406	733.7906494140625	-273.2715454101562	-390.0698547363281	814.1250610351562	-339.0089721679688	-340.155517578125	826.9805908203125	-294.79736328125	-539.6893310546875	1455.502685546875	108.7089157104492	-571.26123046875	1390.855102539062	171.777099609375	-581.8380126953125	1102.056884765625	212.9440155029297	-629.0685424804688	1080.316650390625	177.2706604003906	-407.7838134765625	910.3737182617188	197.4364318847656	-460.7350158691406	877.6087646484375	252.8950653076172	-565.123779296875	1047.050903320312	219.7223510742188	-366.4797973632812	742.6961669921875	196.8113555908203	-366.0266723632812	825.4174194335938	216.9249725341797	-425.9443054199219	817.4589233398438	257.5859680175781	-504.3380126953125	1670.400512695312	22.04250717163086	-313.3515319824219	1693.552978515625	-56.55408096313477	-375.4255676269531	1689.654418945312	73.96508026123047	-426.8056335449219	1673.47802734375	-124.3831481933594	-450.605712890625	933.6241455078125	-245.2464294433594	-570.4429931640625	924.908935546875	120.2378005981445	-471.2910766601562	961.111083984375	94.10903930664062	-397.6939697265625	961.5407104492188	-172.1669006347656	-257.266357421875	531.93603515625	-158.1945037841797	-319.7339477539062	686.5875854492188	-205.0143127441406	-388.016357421875	65.61458587646484	-247.5595397949219	-337.050537109375	293.3243103027344	-217.0238494873047	-197.4045867919922	56.35868453979492	-153.3251647949219	-272.8111267089844	57.38914489746094	-131.7979583740234	-268.2376403808594	54.17416763305664	-237.82568359375	-465.2698059082031	74.23252868652344	-208.4438171386719	-512.0123901367188	486.1007080078125	31.10456657409668	-523.4005737304688	769.8713989257812	112.3799743652344	-610.8335571289062	38.71488189697266	-70.27167510986328	-514.2916870117188	344.0305786132812	-2.817343235015869	-386.0531616210938	39.65251541137695	-55.08179092407227	-439.5387878417969	35.37655639648438	-111.3466415405273	-487.4494323730469	41.50656127929688	-20.24584007263184	-651.0200805664062	27.51856422424316	-134.1437683105469	
199	1.98	-648.947021484375	999.0452270507812	-28.46645164489746	-611.425048828125	999.571044921875	-157.0843505859375	-622.9126586914062	1103.582153320312	-89.67240905761719	-379.5164794921875	1277.963256835938	-30.99737167358398	-619.4795532226562	1228.647705078125	-86.002685546875	-559.3119506835938	1498.796142578125	-50.90296173095703	-391.4429321289062	1389.579345703125	-31.83942794799805	-652.0930786132812	1376.053955078125	15.81710433959961	-577.6931762695312	1450.772338867188	-148.18359375	-465.2406616210938	1471.483764648438	-211.7691650390625	-473.0235290527344	1347.306884765625	-295.3883666992188	-469.1202697753906	1130.801147460938	-328.5098876953125	-559.6466674804688	1120.812622070312	-283.4440307617188	-359.60595703125	901.5744018554688	-273.880859375	-398.9653015136719	872.0200805664062	-345.7272644042969	-440.4679565429688	1047.755004882812	-334.09765625	-345.4107055664062	733.6102294921875	-270.6603393554688	-382.748046875	814.2020263671875	-336.62841796875	-332.7672729492188	827.1065673828125	-292.4595336914062	-533.5892944335938	1455.059814453125	110.8336944580078	-565.57763671875	1390.318359375	173.6467437744141	-576.29736328125	1101.519775390625	214.6677856445312	-623.1585693359375	1079.730346679688	178.5738220214844	-401.9738464355469	909.99658203125	200.0597229003906	-455.1151123046875	877.1212768554688	255.0885009765625	-559.7206420898438	1046.505004882812	221.6330261230469	-360.4701843261719	742.3427124023438	199.4239959716797	-360.2257995605469	825.0652465820312	219.65966796875	-419.8858032226562	817.1295776367188	260.37744140625	-497.8442687988281	1670.05126953125	24.63228225708008	-306.4178771972656	1693.488525390625	-52.82287979125977	-369.3479614257812	1689.362060546875	77.31877899169922	-419.4671630859375	1673.287231445312	-121.2774276733398	-441.9714965820312	933.582763671875	-242.9061279296875	-564.6767578125	924.6054077148438	122.0534973144531	-465.2293090820312	960.5772094726562	96.64674377441406	-389.8609313964844	961.277587890625	-169.0345916748047	-248.8267059326172	532.6882934570312	-152.5304565429688	-311.4653625488281	686.6482543945312	-200.8092193603516	-356.5918273925781	59.770263671875	-236.1171112060547	-316.987548828125	290.3381958007812	-208.9377136230469	-168.0621490478516	59.86555862426758	-137.2963409423828	-243.9786987304688	58.41083526611328	-117.5907669067383	-236.7738037109375	53.06206130981445	-223.3822479248047	-435.0016479492188	66.08325958251953	-198.9749450683594	-510.3051452636719	485.5848388671875	32.05994033813477	-518.5013427734375	769.2978515625	113.4975433349609	-610.8319702148438	38.71535491943359	-70.27604675292969	-513.4489135742188	343.6998596191406	-2.056846618652344	-386.0350341796875	39.63423919677734	-54.97773742675781	-439.5260620117188	35.40463256835938	-111.2768630981445	-487.4976806640625	41.56062316894531	-20.01485252380371	-651.0990600585938	27.67596626281738	-134.1263732910156	
200	1.99	-641.6399536132812	998.7817993164062	-27.18516540527344	-603.2806396484375	999.3215942382812	-155.6154632568359	-615.1348266601562	1103.1982421875	-88.2095947265625	-372.2466125488281	1277.684448242188	-27.85005760192871	-611.8561401367188	1228.250244140625	-84.44983673095703	-552.1121215820312	1498.386962890625	-48.80747222900391	-384.4931945800781	1389.225341796875	-28.88107681274414	-645.2890625	1375.5498046875	17.14816093444824	-569.8610229492188	1450.464477539062	-146.2070922851562	-457.0193786621094	1471.353149414062	-209.1417236328125	-464.6624145507812	1347.22802734375	-292.8088989257812	-461.4217834472656	1130.814453125	-326.1356506347656	-552.0186767578125	1120.9970703125	-281.1542358398438	-352.2976684570312	901.4248657226562	-271.5411987304688	-391.6586303710938	871.93408203125	-343.4276428222656	-432.9275512695312	1047.752563476562	-331.7699584960938	-338.5634155273438	733.2088012695312	-268.1624145507812	-375.5692749023438	814.092041015625	-334.3069763183594	-325.5377502441406	826.9461059570312	-290.1473388671875	-527.4646606445312	1454.548706054688	112.9364318847656	-559.8906860351562	1389.708740234375	175.4791259765625	-570.7802124023438	1100.906127929688	216.3329162597656	-617.2367553710938	1079.108032226562	179.7896270751953	-396.3548889160156	909.3732299804688	202.7293243408203	-449.7445983886719	876.4573974609375	257.2648620605469	-554.4277954101562	1045.881469726562	223.5267486572266	-354.8216552734375	741.7006225585938	202.1068267822266	-354.6903076171875	824.4144897460938	222.4312591552734	-414.0508728027344	816.525390625	263.19580078125	-491.3346557617188	1669.620727539062	27.21913909912109	-299.4486083984375	1693.35546875	-49.05792236328125	-363.2486572265625	1688.987182617188	80.709228515625	-412.1068725585938	1673.036743164062	-118.1515045166016	-433.3087463378906	933.4058227539062	-240.5304107666016	-558.74169921875	924.253173828125	123.961067199707	-459.0034790039062	959.9813232421875	99.19044494628906	-381.8742980957031	960.9464721679688	-165.9610748291016	-240.6839752197266	533.165283203125	-147.1201171875	-303.4412841796875	686.4510498046875	-196.7921905517578	-325.6884460449219	54.74461364746094	-223.7823028564453	-297.3684387207031	287.6316833496094	-200.4798126220703	-139.710693359375	63.96930313110352	-120.5671768188477	-216.0111541748047	60.18048477172852	-102.6548156738281	-206.0950927734375	52.61311721801758	-208.0911712646484	-405.1092834472656	58.86996078491211	-188.6502532958984	-508.5477600097656	485.075439453125	33.0786018371582	-513.47607421875	768.6806030273438	114.718864440918	-610.8405151367188	38.73089981079102	-70.25407409667969	-512.5794067382812	343.3774719238281	-1.264057993888855	-386.0117797851562	39.60610198974609	-54.87805557250977	-439.5729370117188	35.39400100708008	-111.2817993164062	-487.5406799316406	41.58760452270508	-19.81126976013184	-651.181396484375	27.85288429260254	-134.0807342529297	
201	2	-634.2213745117188	998.411865234375	-25.78952217102051	-595.0449829101562	998.9636840820312	-154.0227813720703	-607.2391357421875	1102.69287109375	-86.63734436035156	-364.9365844726562	1277.326293945312	-24.69244766235352	-604.1868286132812	1227.7373046875	-82.83989715576172	-544.8568115234375	1497.8779296875	-46.74132537841797	-377.4909362792969	1388.799438476562	-25.90970230102539	-638.4371337890625	1374.948608398438	18.46545600891113	-561.9866333007812	1450.044799804688	-144.2357788085938	-448.7405700683594	1471.121215820312	-206.5240020751953	-456.2198791503906	1347.045776367188	-290.2257385253906	-453.5943908691406	1130.71142578125	-323.7503051757812	-544.2747192382812	1121.075561523438	-278.8701477050781	-345.0296630859375	901.0352172851562	-269.2157287597656	-384.3846130371094	871.6904907226562	-341.1837463378906	-425.3003540039062	1047.610717773438	-329.4380798339844	-331.9433288574219	732.6410522460938	-265.8146667480469	-368.5067749023438	813.7942504882812	-332.0438232421875	-318.4649963378906	826.4832763671875	-287.8482666015625	-521.3087158203125	1453.961181640625	115.0277633666992	-554.1893310546875	1389.0205078125	177.2789764404297	-565.2779541015625	1100.210693359375	217.9437713623047	-611.3526611328125	1078.449951171875	180.987548828125	-390.9158020019531	908.5005493164062	205.439697265625	-444.6322631835938	875.6139526367188	259.4238891601562	-549.2060546875	1045.177612304688	225.3832550048828	-349.5187072753906	740.7730102539062	204.8599548339844	-349.4136962890625	823.467529296875	225.2430114746094	-408.4267272949219	815.6497192382812	266.0117797851562	-484.8102111816406	1669.100219726562	29.79965019226074	-292.4491882324219	1693.143676757812	-45.26610565185547	-357.1289672851562	1688.53173828125	84.126220703125	-404.7245788574219	1672.713989257812	-115.015869140625	-424.6059875488281	933.0833129882812	-238.09716796875	-552.6507568359375	923.8413696289062	125.9643630981445	-452.6041564941406	959.3236083984375	101.7466201782227	-373.7283935546875	960.5335693359375	-162.9160308837891	-232.7563323974609	533.3817138671875	-141.9297790527344	-295.5868530273438	686.0095825195312	-192.9535522460938	-295.4630737304688	50.56344604492188	-210.6504058837891	-278.2221069335938	285.2138366699219	-191.6871795654297	-112.4383010864258	68.67223358154297	-103.3087463378906	-189.010498046875	62.67861938476562	-87.12970733642578	-176.3106842041016	52.86565780639648	-192.0831298828125	-375.7561950683594	52.60285949707031	-177.5659484863281	-506.74072265625	484.5721130371094	34.16668701171875	-508.3478393554688	768.0180053710938	116.0645217895508	-610.8565063476562	38.76068496704102	-70.209716796875	-511.6725158691406	343.061767578125	-0.444483608007431	-385.9918823242188	39.56466293334961	-54.80165863037109	-439.6718444824219	35.35803985595703	-111.3438568115234	-487.5767822265625	41.57366561889648	-19.6562442779541	-651.260009765625	28.05120849609375	-134.0129089355469	
